# File created by Blade
# Date/Time:  Wed Jan 21 15:15:22 2015
# Frame Rate: 120.000 fps
#------------------------------------------------------
:FULLY-SPECIFIED
:DEGREES
1159
root 17.481896 36.109828 -18.104627 152.735319 -79.830458 -141.608043
Spine -10.794047 3.020778 -5.190132
Head -3.386449 -11.316521 18.632778
LeftShoulder -4.376207 -26.035886 7.823718
LeftArm -3.227955 16.487985 -49.212178
LeftForeArm 9.539688 0.000000 11.910836
LeftHand -1.986535 -0.000000 -4.812617
LeftHandThumb1 -26.253704 0.000000 33.147579
RightShoulder -10.763111 -11.333992 10.060547
RightArm 16.321769 9.294085 45.779798
RightForeArm -33.316216 -0.000000 20.738230
RightHand -2.078475 -0.000000 11.963113
RightHandThumb1 -24.326973 -0.000000 -32.862282
LeftUpLeg -10.606404 12.051022 1.868369
LeftLeg 4.283312 -0.000000 -0.000000
LeftFoot -21.544109 20.911041 -9.871405
LeftToeBase 27.337472 -0.000000 -0.000000
RightUpLeg -11.055351 -10.158809 -7.348438
RightLeg 7.368103 -0.000000 -0.000000
RightFoot -5.427367 -16.872693 20.101252
RightToeBase 15.790481 -0.000000 -0.000000
1160
root 17.456487 36.109407 -18.248547 152.423432 -79.825176 -141.295183
Spine -11.035561 3.094707 -5.038879
Head -3.306840 -11.078067 18.603196
LeftShoulder -4.370234 -25.982562 7.876312
LeftArm -3.145191 16.558615 -48.022964
LeftForeArm 9.304873 0.000000 11.297785
LeftHand -2.014286 -0.000000 -4.797500
LeftHandThumb1 -26.253704 0.000000 33.147579
RightShoulder -10.829219 -11.340092 9.848031
RightArm 16.142509 9.748432 45.125715
RightForeArm -33.153376 0.000000 20.026688
RightHand -2.061167 0.000000 12.160949
RightHandThumb1 -24.326973 -0.000000 -32.862282
LeftUpLeg -10.596062 11.981704 2.176415
LeftLeg 4.427886 -0.000000 -0.000000
LeftFoot -21.651284 20.965883 -10.013250
LeftToeBase 27.297777 -0.000000 -0.000000
RightUpLeg -10.967891 -9.877597 -7.159627
RightLeg 7.485587 -0.000000 -0.000000
RightFoot -5.099026 -15.901415 20.183697
RightToeBase 15.393153 -0.000000 -0.000000
1161
root 17.430992 36.105672 -18.393121 152.246291 -79.812732 -141.136139
Spine -11.250783 3.129959 -4.891703
Head -3.211964 -10.786164 18.529841
LeftShoulder -4.435776 -25.952290 7.969359
LeftArm -3.134983 16.834085 -46.842724
LeftForeArm 8.891668 -0.000000 10.771113
LeftHand -2.157617 -0.000000 -4.779926
LeftHandThumb1 -26.253704 0.000000 33.147579
RightShoulder -10.880083 -11.296057 9.597344
RightArm 16.012254 10.075529 44.465035
RightForeArm -33.077337 0.000000 19.232406
RightHand -2.016137 -0.000000 12.149755
RightHandThumb1 -24.326973 -0.000000 -32.862282
LeftUpLeg -10.565664 11.947579 2.462566
LeftLeg 4.566888 -0.000000 -0.000000
LeftFoot -21.768648 21.027050 -10.133824
LeftToeBase 27.363634 -0.000000 -0.000000
RightUpLeg -10.845797 -9.517330 -6.982086
RightLeg 7.555176 -0.000000 -0.000000
RightFoot -4.841376 -15.022759 20.173209
RightToeBase 14.811209 -0.000000 -0.000000
1162
root 17.402821 36.098556 -18.539771 152.151822 -79.890671 -141.099144
Spine -11.428657 3.125968 -4.827951
Head -3.119429 -10.490374 18.462553
LeftShoulder -4.489625 -25.904357 8.106526
LeftArm -3.046361 16.924295 -45.692084
LeftForeArm 8.610242 -0.000000 10.088415
LeftHand -2.123247 -0.000000 -4.883992
LeftHandThumb1 -26.253704 0.000000 33.147579
RightShoulder -10.969519 -11.387979 9.383006
RightArm 15.967710 10.518384 43.856733
RightForeArm -32.998256 -0.000000 18.490511
RightHand -2.020643 -0.000000 12.093216
RightHandThumb1 -24.326973 -0.000000 -32.862282
LeftUpLeg -10.502818 11.761526 2.707542
LeftLeg 4.712712 -0.000000 -0.000000
LeftFoot -21.899461 21.137515 -10.352300
LeftToeBase 27.328163 -0.000000 -0.000000
RightUpLeg -10.624650 -9.109130 -6.878072
RightLeg 7.539320 -0.000000 -0.000000
RightFoot -4.622574 -14.282780 20.016739
RightToeBase 13.909402 -0.000000 -0.000000
1163
root 17.375340 36.089000 -18.688461 152.143218 -79.959610 -141.170800
Spine -11.567721 3.125168 -4.770544
Head -3.044612 -10.181867 18.374814
LeftShoulder -4.571296 -25.935541 8.267715
LeftArm -3.039072 16.933491 -44.566583
LeftForeArm 8.408826 -0.000000 9.423852
LeftHand -2.005079 -0.000000 -5.069823
LeftHandThumb1 -26.253704 0.000000 33.147579
RightShoulder -11.035963 -11.366298 9.150759
RightArm 15.861250 10.939395 43.234966
RightForeArm -32.872449 -0.000000 17.789968
RightHand -2.045665 -0.000000 12.315769
RightHandThumb1 -24.326973 -0.000000 -32.862282
LeftUpLeg -10.415927 11.631506 2.948520
LeftLeg 4.868358 -0.000000 -0.000000
LeftFoot -22.020417 21.186046 -10.487192
LeftToeBase 27.325122 -0.000000 -0.000000
RightUpLeg -10.367330 -8.504539 -6.797859
RightLeg 7.476489 -0.000000 -0.000000
RightFoot -4.468720 -13.740737 19.797863
RightToeBase 13.710468 -0.000000 -0.000000
1164
root 17.348546 36.075955 -18.838812 152.444492 -80.043676 -141.535908
Spine -11.756536 3.192012 -4.792653
Head -2.936607 -9.910633 18.272187
LeftShoulder -4.604202 -25.877250 8.423661
LeftArm -2.917871 16.925083 -43.423896
LeftForeArm 8.154059 0.000000 8.685659
LeftHand -2.014202 0.000000 -5.175932
LeftHandThumb1 -26.253704 0.000000 33.147579
RightShoulder -11.091577 -11.348461 8.897051
RightArm 15.644533 11.417154 42.664426
RightForeArm -32.570485 -0.000000 17.165979
RightHand -2.072427 -0.000000 12.405001
RightHandThumb1 -24.326973 -0.000000 -32.862282
LeftUpLeg -10.330012 11.526343 3.122786
LeftLeg 4.968759 -0.000000 -0.000000
LeftFoot -22.115378 21.263349 -10.652687
LeftToeBase 27.324012 -0.000000 -0.000000
RightUpLeg -10.132015 -7.819482 -6.751897
RightLeg 7.403188 -0.000000 -0.000000
RightFoot -4.286583 -13.438389 19.681756
RightToeBase 13.973686 -0.000000 -0.000000
1165
root 17.320306 36.059041 -18.989460 152.992435 -80.134564 -142.154247
Spine -11.955259 3.248703 -4.856203
Head -2.778101 -9.615632 18.115865
LeftShoulder -4.674114 -25.895284 8.613270
LeftArm -2.872551 16.991156 -42.288853
LeftForeArm 7.778387 -0.000000 8.010139
LeftHand -2.036585 -0.000000 -5.373669
LeftHandThumb1 -26.253704 0.000000 33.147579
RightShoulder -11.184732 -11.346252 8.642235
RightArm 15.516489 11.814251 42.084403
RightForeArm -32.460700 -0.000000 16.514554
RightHand -1.897662 0.000000 12.341118
RightHandThumb1 -24.326973 -0.000000 -32.862282
LeftUpLeg -10.265392 11.316289 3.273785
LeftLeg 5.132428 -0.000000 -0.000000
LeftFoot -22.298680 21.458076 -10.945283
LeftToeBase 27.272801 -0.000000 -0.000000
RightUpLeg -9.879716 -7.020554 -6.751615
RightLeg 7.291129 -0.000000 -0.000000
RightFoot -4.007719 -13.356640 19.530269
RightToeBase 14.162963 -0.000000 -0.000000
1166
root 17.285482 36.036965 -19.142295 153.617189 -80.254069 -143.002602
Spine -11.958227 3.316606 -4.969674
Head -2.674738 -9.355008 17.976370
LeftShoulder -4.745515 -25.929185 8.803446
LeftArm -2.810055 16.861665 -41.149660
LeftForeArm 7.712390 -0.000000 7.330215
LeftHand -2.125134 0.000000 -5.320070
LeftHandThumb1 -26.253704 0.000000 33.147579
RightShoulder -11.241405 -11.324396 8.368845
RightArm 15.342979 12.252493 41.561048
RightForeArm -32.196246 -0.000000 15.981739
RightHand -2.121409 -0.000000 12.482476
RightHandThumb1 -24.326973 -0.000000 -32.862282
LeftUpLeg -10.014163 11.147538 3.408164
LeftLeg 5.257164 -0.000000 -0.000000
LeftFoot -22.431208 21.564177 -11.097659
LeftToeBase 27.226797 -0.000000 -0.000000
RightUpLeg -9.460685 -6.160375 -6.800852
RightLeg 7.177199 -0.000000 -0.000000
RightFoot -3.532070 -13.504234 19.376459
RightToeBase 13.799460 -0.000000 -0.000000
1167
root 17.254899 36.011103 -19.295657 154.476760 -80.371468 -144.072857
Spine -11.984855 3.410479 -5.110956
Head -2.534104 -9.044190 17.802588
LeftShoulder -4.761592 -26.051308 8.991904
LeftArm -2.838703 16.764227 -40.021356
LeftForeArm 7.464085 -0.000000 6.702113
LeftHand -2.193527 0.000000 -5.404378
LeftHandThumb1 -26.253704 0.000000 33.147579
RightShoulder -11.302374 -11.307539 8.102802
RightArm 15.203279 12.686754 41.007617
RightForeArm -32.155582 -0.000000 15.375355
RightHand -2.072724 0.000000 12.573813
RightHandThumb1 -24.326973 -0.000000 -32.862282
LeftUpLeg -9.794563 10.979776 3.509861
LeftLeg 5.403210 -0.000000 -0.000000
LeftFoot -22.576536 21.726754 -11.239439
LeftToeBase 27.149770 -0.000000 -0.000000
RightUpLeg -9.092569 -5.231233 -6.864948
RightLeg 7.112376 -0.000000 -0.000000
RightFoot -3.092596 -13.829331 19.367206
RightToeBase 13.307133 -0.000000 -0.000000
1168
root 17.230810 35.981572 -19.450779 155.545115 -80.562404 -145.265755
Spine -12.114509 3.400729 -5.323493
Head -2.366252 -8.742833 17.635587
LeftShoulder -4.852793 -26.125778 9.224373
LeftArm -2.800484 16.681229 -38.886730
LeftForeArm 7.378690 0.000000 6.059453
LeftHand -2.338801 -0.000000 -5.536343
LeftHandThumb1 -26.253704 0.000000 33.147579
RightShoulder -11.330480 -11.283361 7.813732
RightArm 15.027318 13.059973 40.473421
RightForeArm -32.020881 -0.000000 14.836545
RightHand -2.149279 -0.000000 12.612069
RightHandThumb1 -24.326973 -0.000000 -32.862282
LeftUpLeg -9.722525 10.774065 3.545407
LeftLeg 5.622016 -0.000000 -0.000000
LeftFoot -22.749354 21.801793 -11.458679
LeftToeBase 27.177662 -0.000000 -0.000000
RightUpLeg -8.819708 -4.351124 -6.952084
RightLeg 7.098754 -0.000000 -0.000000
RightFoot -3.027757 -14.381841 19.141926
RightToeBase 9.648379 -0.000000 -0.000000
1169
root 17.202821 35.946525 -19.603239 156.937639 -80.794124 -146.852007
Spine -12.168635 3.408354 -5.601590
Head -2.176487 -8.473018 17.422159
LeftShoulder -4.930107 -26.218297 9.418364
LeftArm -2.725603 16.686606 -37.694470
LeftForeArm 7.119979 -0.000000 5.467593
LeftHand -2.464043 0.000000 -5.744118
LeftHandThumb1 -26.253704 0.000000 33.147579
RightShoulder -11.327227 -11.225915 7.505395
RightArm 14.772808 13.334256 39.917502
RightForeArm -31.955631 -0.000000 14.336284
RightHand -2.205386 -0.000000 12.538303
RightHandThumb1 -24.326973 -0.000000 -32.862282
LeftUpLeg -9.577124 10.545532 3.514837
LeftLeg 5.832102 -0.000000 -0.000000
LeftFoot -22.926674 21.873094 -11.684781
LeftToeBase 27.188514 -0.000000 -0.000000
RightUpLeg -8.490518 -3.700903 -7.096920
RightLeg 7.037665 -0.000000 -0.000000
RightFoot -4.411428 -15.342966 19.314909
RightToeBase 10.395999 -0.000000 -0.000000
1170
root 17.173924 35.906736 -19.760458 158.209744 -81.078675 -148.326204
Spine -12.200667 3.337855 -5.872451
Head -2.003939 -8.139740 17.198022
LeftShoulder -5.052901 -26.301752 9.640540
LeftArm -2.619111 16.658345 -36.516411
LeftForeArm 6.910611 -0.000000 4.902885
LeftHand -2.574647 -0.000000 -5.855483
LeftHandThumb1 -26.253704 0.000000 33.147579
RightShoulder -11.340436 -11.134666 7.162834
RightArm 14.545080 13.582655 39.392060
RightForeArm -32.044597 -0.000000 13.831712
RightHand -2.181249 -0.000000 12.799027
RightHandThumb1 -24.326973 -0.000000 -32.862282
LeftUpLeg -9.447416 10.352447 3.486360
LeftLeg 6.067154 -0.000000 -0.000000
LeftFoot -23.132310 21.852399 -11.873724
LeftToeBase 27.258273 -0.000000 -0.000000
RightUpLeg -8.140083 -3.265178 -7.198285
RightLeg 6.944069 -0.000000 -0.000000
RightFoot -6.195963 -16.626341 20.086250
RightToeBase 13.185995 -0.000000 -0.000000
1171
root 17.142130 35.864922 -19.913782 160.362213 -81.280057 -150.659782
Spine -12.308383 3.398354 -6.250500
Head -1.774330 -7.860658 16.989095
LeftShoulder -5.174547 -26.369663 9.872659
LeftArm -2.489308 16.585606 -35.342037
LeftForeArm 6.755234 0.000000 4.375244
LeftHand -2.700164 -0.000000 -5.980127
LeftHandThumb1 -26.253704 0.000000 33.147579
RightShoulder -11.396133 -11.152153 6.874681
RightArm 14.415602 13.834778 38.831397
RightForeArm -31.847901 -0.000000 13.282455
RightHand -2.299830 -0.000000 12.714895
RightHandThumb1 -24.326973 -0.000000 -32.862282
LeftUpLeg -9.336924 10.226058 3.369739
LeftLeg 6.336204 -0.000000 -0.000000
LeftFoot -23.353747 21.835280 -12.141112
LeftToeBase 27.240536 -0.000000 -0.000000
RightUpLeg -7.876700 -2.658643 -7.396115
RightLeg 6.972334 -0.000000 -0.000000
RightFoot -7.770503 -17.789030 20.978830
RightToeBase 13.118666 -0.000000 -0.000000
